# This file uses centimeters as units for non-parametric coordinates.

mtllib CoffeeCup.mtl
g default
v -0.212326 -0.005166 0.000000
v -0.150137 -0.005166 0.150137
v 0.000000 -0.005166 0.212326
v 0.150137 -0.005166 0.150137
v 0.212326 -0.005166 0.000000
v -0.276535 0.613784 -0.000000
v -0.195540 0.613784 0.195539
v 0.000000 0.613784 0.276535
v 0.195539 0.613784 0.195539
v 0.276535 0.613784 -0.000000
v 0.000000 -0.005166 0.000000
v -0.323118 0.613784 -0.000000
v -0.228479 0.613784 0.228479
v 0.000000 0.613784 0.323118
v 0.228479 0.613784 0.228479
v 0.323118 0.613784 -0.000000
v -0.323118 0.709217 -0.000000
v -0.228479 0.709217 0.228479
v 0.000000 0.709217 0.323118
v 0.228479 0.709217 0.228479
v 0.323118 0.709217 -0.000000
v -0.270564 0.709217 -0.000000
v -0.191318 0.709217 0.191318
v 0.000000 0.709217 0.270564
v 0.191318 0.709217 0.191318
v 0.270564 0.709217 -0.000000
v -0.261357 0.680112 -0.000000
v -0.184808 0.680112 0.184807
v 0.000000 0.680112 0.261357
v 0.184808 0.680112 0.184807
v 0.261357 0.680112 -0.000000
v -0.122423 0.751168 -0.000000
v -0.235599 0.751168 -0.000000
v -0.145799 0.751168 0.145799
v 0.000000 0.751168 0.206190
v 0.145799 0.751168 0.145799
v 0.206190 0.751168 -0.000000
v -0.235599 0.783090 -0.000000
v -0.143052 0.769112 -0.000000
v -0.194251 0.751168 0.083115
v -0.208870 0.782795 0.045085
v -0.150137 -0.005166 -0.150137
v -0.195540 0.613784 -0.195539
v 0.000000 -0.005166 -0.212326
v 0.000000 0.613784 -0.276535
v 0.150137 -0.005166 -0.150137
v 0.195539 0.613784 -0.195539
v -0.145799 0.751168 -0.145799
v 0.000000 0.751168 -0.206190
v 0.145799 0.751168 -0.145799
v -0.228479 0.613784 -0.228479
v 0.000000 0.613784 -0.323118
v 0.228479 0.613784 -0.228479
v -0.228479 0.709217 -0.228479
v 0.000000 0.709217 -0.323118
v 0.228479 0.709217 -0.228479
v -0.191318 0.709217 -0.191318
v 0.000000 0.709217 -0.270564
v 0.191318 0.709217 -0.191318
v -0.184808 0.680112 -0.184807
v 0.000000 0.680112 -0.261357
v 0.184808 0.680112 -0.184807
v -0.194251 0.751168 -0.083115
v -0.208870 0.782795 -0.045085
vt 0.647023 0.964838
vt 0.714602 0.992831
vt 0.714602 0.897259
vt 0.619031 0.897259
vt 0.647023 0.964838
vt 0.989687 0.695578
vt 0.916967 0.695578
vt 0.916967 0.947602
vt 0.989687 0.947602
vt 0.844246 0.695578
vt 0.844246 0.947602
vt 0.916967 0.695578
vt 0.916967 0.947602
vt 0.989687 0.695578
vt 0.989687 0.947602
vt 0.714602 0.992831
vt 0.784841 0.812201
vt 0.763463 0.866432
vt 0.834329 0.820145
vt 0.785284 0.920270
vt 0.834324 0.945353
vt 0.832590 0.727391
vt 0.989687 0.953161
vt 0.916967 0.953161
vt 0.916967 0.992019
vt 0.989687 0.992019
vt 0.844246 0.953161
vt 0.844246 0.992019
vt 0.916967 0.953161
vt 0.916967 0.992019
vt 0.989687 0.953161
vt 0.989687 0.992019
vt 0.744574 0.763848
vt 0.729748 0.749022
vt 0.832590 0.706423
vt 0.708117 0.851864
vt 0.687149 0.851864
vt 0.744574 0.763848
vt 0.729748 0.749022
vt 0.832590 0.727391
vt 0.832590 0.706423
vt 0.832590 0.706423
vt 0.729748 0.749022
vt 0.752236 0.784575
vt 0.834306 0.738593
vt 0.687149 0.851864
vt 0.720567 0.865833
vt 0.729748 0.749022
vt 0.752374 0.948288
vt 0.832590 0.706423
vt 0.832590 0.730079
vt 0.916967 0.947602
vt 0.916967 0.695578
vt 0.844246 0.947602
vt 0.844246 0.695578
vt 0.916967 0.947602
vt 0.916967 0.695578
vt 0.916967 0.992019
vt 0.916967 0.953161
vt 0.844246 0.992019
vt 0.844246 0.953161
vt 0.760017 0.791255
vt 0.834311 0.748461
vt 0.731022 0.866138
vt 0.760437 0.941515
vt 0.834310 0.978608
vt 0.806482 0.793858
vt 0.784576 0.969846
vt 0.821304 0.786329
vt 0.834314 0.782464
vt 0.834321 0.804951
vt 0.647023 0.964838
vt 0.619031 0.897259
vt 0.647023 0.964838
vt 0.916967 0.992019
vt 0.916967 0.953161
vt 0.784880 0.812240
vt 0.821373 0.786304
vt 0.763509 0.866473
vt 0.806502 0.793897
vt 0.785329 0.920322
vt 0.760462 0.941536
vt 0.731048 0.866178
vt 0.760060 0.791295
vt 0.729748 0.749022
vt 0.752398 0.948318
vt 0.687149 0.851864
vt 0.729748 0.749022
vt 0.744574 0.763848
vt 0.687149 0.851864
vt 0.708117 0.851864
vt 0.729748 0.749022
vt 0.744574 0.763848
vt 0.752246 0.784575
vt 0.729748 0.749022
vt 0.720573 0.865856
vt 0.989687 0.953161
vt 0.989687 0.992019
vt 0.989687 0.953161
vt 0.989687 0.992019
vt 0.989687 0.695578
vt 0.989687 0.947602
vt 0.989687 0.695578
vt 0.989687 0.947602
vt 0.834308 0.782450
vt 0.834320 0.804887
vt 0.834335 0.820084
vt 0.763549 0.989361
vt 0.834325 0.945260
vt 0.834301 0.978561
vt 0.834303 0.748467
vt 0.832590 0.730079
vt 0.834294 0.738564
vt 0.832590 0.706423
vt 0.832590 0.706423
vt 0.832590 0.706423
vt 0.832590 0.706423
vt 0.832590 0.727391
vt 0.832590 0.727391
vt 0.714602 0.897259
vt 0.619030 0.897259
vt 0.619031 0.897259
vt 0.746474 0.765749
vt 0.834292 0.989161
vt 0.834305 0.989133
vt 0.710804 0.851864
vt 0.710804 0.851864
vt 0.746474 0.765749
vt 0.687149 0.851864
vt 0.832590 0.730079
vt 0.832590 0.730079
vt 0.708117 0.851864
vt 0.687149 0.851864
vt 0.714602 0.897259
vt 0.714602 0.897259
vt 0.714602 0.992831
vt 0.746474 0.765749
vt 0.710804 0.851864
vt 0.710804 0.851864
vt 0.746474 0.765749
vt 0.687149 0.851864
vt 0.708117 0.851864
vt 0.687149 0.851864
vt 0.714602 0.992831
vt 0.844246 0.953161
vt 0.844246 0.992019
vt 0.844246 0.695578
vt 0.844246 0.947602
vt 0.844246 0.953161
vt 0.844246 0.992019
vt 0.844246 0.695578
vt 0.844246 0.947602
vt 0.763549 0.989361
vt 0.784576 0.989361
vt 0.756649 0.969846
vt 0.756650 0.969846
vt 0.834323 0.776804
vt 0.834322 0.776827
vt 0.784576 0.969846
vt 0.784576 0.989361
vn -0.994662 -0.103184 0.000000
vn -0.703332 -0.103184 0.703333
vn -0.703332 -0.103184 0.703332
vn -0.994662 -0.103184 0.000000
vn 0.000000 -0.103184 0.994662
vn 0.000000 -0.103184 0.994662
vn 0.703332 -0.103184 0.703333
vn 0.703332 -0.103184 0.703333
vn 0.994662 -0.103184 0.000000
vn 0.994662 -0.103184 0.000000
vn 0.000000 -1.000000 0.000000
vn 0.000000 -1.000000 0.000000
vn 0.000000 -1.000000 0.000000
vn 0.000000 -1.000000 0.000000
vn 0.000000 -1.000000 0.000000
vn 0.000000 -1.000000 0.000000
vn 0.000000 1.000000 0.000000
vn 0.000000 1.000000 0.000000
vn 0.052039 0.998645 0.000000
vn 0.000000 1.000000 0.000000
vn 0.000000 1.000000 0.000000
vn 0.000000 -1.000000 0.000000
vn 0.000000 -1.000000 -0.000000
vn 0.000000 -1.000000 -0.000000
vn 0.000000 -1.000000 0.000000
vn 0.000000 -1.000000 -0.000000
vn 0.000000 -1.000000 -0.000000
vn 0.000000 -1.000000 -0.000000
vn 0.000000 -1.000000 -0.000000
vn 0.000000 -1.000000 -0.000000
vn 0.000000 -1.000000 -0.000000
vn -1.000000 0.000000 0.000000
vn -0.707107 0.000000 0.707107
vn -0.707107 0.000000 0.707107
vn -1.000000 0.000000 -0.000000
vn -0.000000 0.000000 1.000000
vn -0.000000 0.000000 1.000000
vn 0.707107 0.000000 0.707107
vn 0.707107 0.000000 0.707107
vn 1.000000 0.000000 0.000000
vn 1.000000 0.000000 0.000000
vn 0.000000 1.000000 -0.000000
vn 0.000000 1.000000 -0.000000
vn 0.000000 1.000000 -0.000000
vn 0.000000 1.000000 -0.000000
vn 0.000000 1.000000 -0.000000
vn 0.000000 1.000000 -0.000000
vn 0.000000 1.000000 0.000000
vn 0.000000 1.000000 0.000000
vn 0.000000 1.000000 0.000000
vn 0.000000 1.000000 0.000000
vn 0.953433 0.301604 0.000000
vn 0.674179 0.301605 -0.674179
vn 0.674179 0.301605 -0.674179
vn 0.953433 0.301604 0.000000
vn 0.000000 0.301605 -0.953433
vn 0.000000 0.301605 -0.953433
vn -0.674179 0.301605 -0.674179
vn -0.674179 0.301605 -0.674179
vn -0.953433 0.301604 0.000000
vn -0.953433 0.301604 -0.000000
vn -0.886017 0.463653 0.000000
vn -0.794908 0.455295 0.401034
vn -0.940136 0.340800 -0.000000
vn -0.534386 0.559760 0.633325
vn -0.000000 0.613258 0.789883
vn -0.000000 0.613258 0.789883
vn -0.522822 0.561997 0.640950
vn 0.558531 0.613258 0.558531
vn 0.558531 0.613258 0.558531
vn 0.789883 0.613258 -0.000000
vn 0.789883 0.613258 -0.000000
vn -0.996163 0.087523 0.000000
vn -0.880477 0.077359 0.467735
vn -0.880477 0.077359 0.467735
vn -0.996163 0.087523 0.000000
vn 0.401736 0.870088 0.285577
vn 0.519276 0.854606 0.000000
vn 0.149352 0.988784 0.000000
vn 0.188974 0.966392 0.174284
vn -0.703332 -0.103184 -0.703332
vn -0.703332 -0.103184 -0.703333
vn 0.000000 -0.103184 -0.994662
vn 0.000000 -0.103184 -0.994662
vn 0.703332 -0.103184 -0.703333
vn 0.703332 -0.103184 -0.703333
vn 0.000000 -1.000000 -0.000000
vn 0.000000 -1.000000 0.000000
vn 0.000000 -1.000000 -0.000000
vn 0.000000 1.000000 0.000000
vn 0.000000 1.000000 0.000000
vn 0.000000 1.000000 0.000000
vn 0.000000 -1.000000 0.000000
vn 0.000000 -1.000000 0.000000
vn 0.000000 -1.000000 0.000000
vn 0.000000 -1.000000 0.000000
vn 0.000000 -1.000000 -0.000000
vn 0.000000 -1.000000 -0.000000
vn -0.707107 -0.000000 -0.707107
vn -0.707107 -0.000000 -0.707107
vn -0.000000 0.000000 -1.000000
vn -0.000000 0.000000 -1.000000
vn 0.707107 0.000000 -0.707107
vn 0.707107 0.000000 -0.707107
vn 0.000000 1.000000 0.000000
vn 0.000000 1.000000 0.000000
vn 0.000000 1.000000 0.000000
vn 0.000000 1.000000 0.000000
vn 0.000000 1.000000 0.000000
vn 0.000000 1.000000 0.000000
vn 0.674179 0.301605 0.674179
vn 0.674179 0.301605 0.674179
vn 0.000000 0.301605 0.953433
vn 0.000000 0.301605 0.953433
vn -0.674179 0.301605 0.674179
vn -0.674179 0.301605 0.674179
vn -0.794908 0.455295 -0.401034
vn -0.534386 0.559760 -0.633325
vn -0.522822 0.561997 -0.640950
vn -0.000000 0.613258 -0.789883
vn -0.000000 0.613258 -0.789883
vn 0.558531 0.613258 -0.558531
vn 0.558531 0.613258 -0.558531
vn -0.880477 0.077359 -0.467734
vn -0.880478 0.077359 -0.467734
vn 0.401736 0.870088 -0.285577
vn 0.188974 0.966392 -0.174284
s 1
g pCylinder4
usemtl lambert2SG
f 1/103/1 2/7/2 7/8/3 6/9/4
f 2/7/2 3/10/5 8/152/6 7/8/3
f 3/151/5 4/12/7 9/13/8 8/11/6
f 4/12/7 5/14/9 10/102/10 9/13/8
s 2
f 2/1/11 1/2/12 11/120/13
f 3/4/14 2/1/11 11/120/13
f 4/5/15 3/144/14 11/135/13
f 5/121/16 4/5/15 11/135/13
s 3
f 34/17/17 35/18/18 32/107/19
f 35/18/18 36/20/20 32/107/19
f 36/20/20 37/109/21 32/107/19
s 4
f 6/119/22 7/33/23 13/34/24 12/35/25
f 7/33/23 8/142/26 14/143/27 13/34/24
f 8/36/26 9/38/28 15/39/29 14/37/27
f 9/38/28 10/40/30 16/116/31 15/39/29
s 5
f 12/99/32 13/24/33 18/25/34 17/26/35
f 13/24/33 14/149/36 19/150/37 18/25/34
f 14/27/36 15/29/38 20/30/39 19/28/37
f 15/29/38 16/31/40 21/98/41 20/30/39
s 6
f 17/115/42 18/43/43 23/140/44 22/130/45
f 18/43/43 19/141/46 24/139/47 23/140/44
f 19/46/46 20/48/48 25/137/49 24/138/47
f 20/48/48 21/50/50 26/112/51 25/137/49
s 7
f 22/113/52 23/44/53 28/62/54 27/111/55
f 23/44/53 24/47/56 29/64/57 28/62/54
f 24/47/56 25/49/58 30/65/59 29/64/57
f 25/49/58 26/124/60 31/110/61 30/65/59
s 8
f 27/111/62 40/67/63 33/157/64
f 28/62/65 29/64/66 35/18/67 34/17/68
f 29/64/66 30/65/69 36/20/70 35/18/67
f 30/65/69 31/110/71 37/109/72 36/20/70
s 10
f 33/159/73 40/155/74 41/108/75 38/154/76
s 3
f 41/69/77 39/106/78 38/105/79
s 8
f 27/111/62 28/62/65 34/17/68 40/67/63
s 3
f 40/67/80 32/107/19 39/106/78 41/69/77
f 34/17/17 32/107/19 40/67/80
s 1
f 1/6/1 6/104/4 43/52/81 42/53/82
f 42/53/82 43/52/81 45/54/83 44/147/84
f 44/55/84 45/148/83 47/56/85 46/57/86
f 46/57/86 47/56/85 10/15/10 5/101/9
s 2
f 42/72/87 11/134/13 1/122/12
f 44/136/88 11/134/13 42/72/87
f 46/74/89 11/3/13 44/73/88
f 5/16/16 11/3/13 46/74/89
s 3
f 48/77/90 32/19/19 49/79/91
f 49/79/91 32/19/19 50/81/92
f 50/81/92 32/19/19 37/21/21
s 4
f 6/22/22 12/117/25 51/88/93 43/89/94
f 43/89/94 51/88/93 52/90/95 45/91/96
f 45/132/96 52/133/95 53/92/97 47/93/98
f 47/93/98 53/92/97 16/41/31 10/118/30
s 5
f 12/23/32 17/100/35 54/58/99 51/59/100
f 51/59/100 54/58/99 55/60/101 52/61/102
f 52/145/102 55/146/101 56/75/103 53/76/104
f 53/76/104 56/75/103 21/32/41 16/97/40
s 6
f 17/42/42 22/131/45 57/128/105 54/95/106
f 54/95/106 57/128/105 58/126/107 55/87/108
f 55/129/108 58/127/107 59/123/109 56/85/110
f 56/85/110 59/123/109 26/51/51 21/114/50
s 7
f 22/45/52 27/63/55 60/84/111 57/94/112
f 57/94/112 60/84/111 61/83/113 58/96/114
f 58/96/114 61/83/113 62/82/115 59/86/116
f 59/86/116 62/82/115 31/66/61 26/125/60
s 8
f 27/63/62 33/158/64 63/80/117
f 60/84/118 48/77/119 49/79/120 61/83/121
f 61/83/121 49/79/120 50/81/122 62/82/123
f 62/82/123 50/81/122 37/21/72 31/66/71
s 10
f 33/68/73 38/160/76 64/153/124 63/156/125
s 3
f 64/78/126 38/70/79 39/71/78
s 8
f 27/63/62 63/80/117 48/77/119 60/84/118
s 3
f 63/80/127 64/78/126 39/71/78 32/19/19
f 48/77/90 63/80/127 32/19/19
