# This file uses centimeters as units for non-parametric coordinates.

mtllib Leaf.mtl
g default
v -0.214375 0.000000 -0.000000
v 0.214375 0.000000 -0.000000
v -0.214375 0.577117 0.000000
v 0.214375 0.577117 0.000000
v -0.214375 0.288559 -0.017488
v 0.214375 0.288559 -0.017488
v 0.000000 0.577117 -0.035667
v 0.000000 0.288559 -0.076506
v 0.000000 0.000000 -0.035667
vt 0.536747 0.514829
vt 0.620614 0.514829
vt 0.536747 0.633472
vt 0.620614 0.633472
vt 0.536747 0.574150
vt 0.620614 0.574150
vt 0.578681 0.633472
vt 0.578681 0.574150
vt 0.578681 0.514829
vn 0.000000 -0.000000 1.000000
vn -0.215642 -0.000000 0.976472
vn -0.214600 -0.098213 0.971752
vn 0.000000 -0.100555 0.994932
vn 0.000000 0.100555 0.994932
vn -0.214600 0.098213 0.971752
vn 0.215642 0.000000 0.976472
vn 0.214600 -0.098213 0.971752
vn 0.214600 0.098213 0.971752
s 1
g pPlane3
usemtl lambert2SG
f 8/8/1 6/6/2 4/4/3 7/7/4
f 9/9/5 2/2/6 6/6/2 8/8/1
f 5/5/7 8/8/1 7/7/4 3/3/8
f 1/1/9 9/9/5 8/8/1 5/5/7
