# This file uses centimeters as units for non-parametric coordinates.

mtllib Newspaper.mtl
g default
v -0.687319 -0.162700 -0.162243
v -0.687319 0.000000 -0.229636
v -0.687319 0.162700 -0.162243
v -0.687319 0.230092 0.000457
v -0.687319 0.162700 0.163157
v -0.687319 0.000000 0.230549
v -0.687319 -0.213220 0.174854
v -0.687319 -0.230092 0.000457
v 0.687319 -0.162700 -0.162243
v 0.687319 0.000000 -0.229636
v 0.687319 0.162700 -0.162243
v 0.687319 0.230092 0.000457
v 0.687319 0.162700 0.163157
v 0.687319 0.000000 0.230549
v 0.687319 -0.213220 0.174854
v 0.687319 -0.230092 0.000457
v -0.687319 0.000000 0.362730
v -0.687319 -0.130128 0.295337
v 0.687319 -0.130128 0.295337
v 0.687319 0.000000 0.362730
v 0.000000 0.116051 0.135457
v 0.000000 0.164121 0.019406
v 0.000000 0.116051 -0.096645
v 0.000000 -0.000000 -0.144715
v 0.000000 -0.116051 -0.096645
v 0.000000 -0.164121 0.019406
v 0.000000 -0.152086 0.143801
v 0.000000 -0.083480 0.229739
v 0.000000 0.000000 0.277809
v 0.000000 0.000000 0.183527
v 0.263364 0.136254 0.147453
v 0.263364 0.192692 0.011199
v 0.263364 0.136254 -0.125055
v 0.263364 0.000000 -0.181493
v 0.263364 -0.136254 -0.125055
v 0.263364 -0.192692 0.011199
v 0.263364 -0.178562 0.157249
v 0.263364 -0.103683 0.258149
v 0.263364 0.000000 0.314587
v 0.263364 0.000000 0.203892
v -0.263364 0.136254 0.147453
v -0.263364 0.192692 0.011199
v -0.263364 0.136254 -0.125055
v -0.263364 0.000000 -0.181493
v -0.263364 -0.136254 -0.125055
v -0.263364 -0.192692 0.011199
v -0.263364 -0.178562 0.157249
v -0.263364 -0.103683 0.258149
v -0.263364 0.000000 0.314587
v -0.263364 0.000000 0.203892
v -0.733012 -0.146546 -0.138971
v -0.733012 0.000000 -0.199673
v -0.739870 0.000076 0.007102
v -0.733012 0.146546 -0.138971
v -0.733012 0.207245 0.007576
v -0.733013 0.146542 0.154118
v -0.733037 0.000510 0.213585
v -0.733040 -0.190994 0.162905
v -0.733016 -0.207246 0.007184
v -0.733061 -0.112228 0.270013
v -0.733061 0.000000 0.329991
v 0.733012 -0.146546 -0.138973
v 0.733012 0.000000 -0.199676
v 0.739871 0.000076 0.007100
v 0.733013 0.146546 -0.138973
v 0.733012 0.207245 0.007574
v 0.733012 0.146542 0.154116
v 0.733036 0.000510 0.213583
v 0.733040 -0.190994 0.162903
v 0.733016 -0.207246 0.007182
v 0.733060 0.000000 0.329989
v 0.733060 -0.112227 0.270011
vt 0.885038 0.223595
vt 0.885205 0.279021
vt 0.743507 0.276268
vt 0.742953 0.225776
vt 0.883096 0.334437
vt 0.741919 0.326499
vt 0.878273 0.390157
vt 0.738392 0.376098
vt 0.870593 0.446261
vt 0.732954 0.424710
vt 0.860378 0.503044
vt 0.725162 0.471986
vt 0.974267 0.031174
vt 0.874506 0.063440
vt 0.734412 0.083461
vt 0.949906 0.162688
vt 0.879117 0.110849
vt 0.882875 0.167506
vt 0.740593 0.175391
vt 0.737946 0.125550
vt 0.071006 0.225416
vt 0.902443 0.221659
vt 0.093377 0.281295
vt 0.147208 0.225387
vt 0.093377 0.169536
vt 0.147383 0.146391
vt 0.201387 0.169538
vt 0.896470 0.110809
vt 0.223302 0.225221
vt 0.204625 0.298244
vt 0.387645 0.279490
vt 0.147239 0.304441
vt 0.390661 0.337281
vt 0.396395 0.394454
vt 0.404798 0.450450
vt 0.924454 0.496036
vt 0.093376 0.281295
vt 0.391361 0.165685
vt 0.892893 0.062984
vt 0.969235 0.018272
vt 0.403050 0.018602
vt 0.398116 0.063226
vt 0.645599 0.371705
vt 0.645613 0.416715
vt 0.558244 0.424789
vt 0.552787 0.376164
vt 0.645589 0.324275
vt 0.549241 0.326561
vt 0.645583 0.275525
vt 0.547627 0.276330
vt 0.645584 0.226536
vt 0.548143 0.225841
vt 0.645605 0.178338
vt 0.550441 0.175455
vt 0.645451 0.131995
vt 0.553115 0.125666
vt 0.645459 0.093009
vt 0.556592 0.083577
vt 0.939502 0.256776
vt 0.949906 0.350863
vt 0.566058 0.472090
vt 0.645634 0.458182
vt 0.420522 0.446353
vt 0.412867 0.390241
vt 0.408058 0.334535
vt 0.405939 0.279145
vt 0.406072 0.223745
vt 0.408186 0.167674
vt 0.411953 0.111057
vt 0.416504 0.063661
vt 0.422714 0.015519
vt 0.930879 0.483867
vt 0.394597 0.111026
vt 0.071006 0.225416
vt 0.969234 0.495279
vt 0.147207 0.225387
vt 0.414131 0.503747
vt 0.093376 0.169536
vt 0.974268 0.482377
vt 0.147382 0.146391
vt 0.388668 0.221823
vt 0.201386 0.169538
vt 0.430714 0.503168
vt 0.223301 0.225221
vt 0.204624 0.298244
vt 0.147238 0.304441
vt 0.876951 0.503638
vt 0.924456 0.017516
vt 0.887907 0.018361
vt 0.244097 0.268209
vt 0.266200 0.225416
vt 0.868246 0.015297
vt 0.266200 0.225416
vt 0.899704 0.165505
vt 0.244096 0.268209
vt 0.886310 0.450367
vt 0.930878 0.029684
vt 0.894742 0.394378
vt 0.900494 0.337185
vt 0.903501 0.279358
vt 0.919137 0.166879
vt 0.913795 0.256776
vt 0.729250 0.044528
vt 0.645448 0.060761
vt 0.919137 0.346672
vt 0.561710 0.044648
vn 0.040996 -0.701894 -0.711101
vn 0.044079 0.000000 -0.999028
vn 0.121270 0.000000 -0.992620
vn 0.113460 -0.703250 -0.701830
vn 0.040896 0.701924 -0.711077
vn 0.113460 0.703251 -0.701830
vn 0.033601 0.999393 -0.009240
vn 0.094525 0.995522 0.001425
vn 0.026532 0.711456 0.702229
vn 0.075490 0.704374 0.705803
vn 0.022134 0.382349 0.923753
vn 0.062458 0.381936 0.922076
vn 0.037538 -0.467456 0.883219
vn 0.032942 -0.658820 0.751579
vn 0.109480 -0.657463 0.745491
vn 0.110244 -0.471364 0.875021
vn 0.031970 -0.942789 0.331853
vn 0.032621 -0.988041 -0.150700
vn 0.097572 -0.984300 -0.147080
vn 0.100510 -0.937343 0.333596
vn -0.999450 -0.000004 -0.033150
vn -0.999451 -0.023407 -0.023431
vn -1.000000 0.000391 0.000532
vn -0.999451 0.023441 -0.023421
vn -0.999453 0.033085 0.000024
vn -0.999454 0.023381 0.023326
vn -0.999793 0.000285 0.020370
vn -0.999769 -0.015463 0.014937
vn -0.999446 -0.033046 -0.004027
vn 0.999451 -0.023409 -0.023430
vn 0.999450 -0.000005 -0.033151
vn 1.000000 0.000391 0.000534
vn 0.999451 0.023443 -0.023419
vn 0.999453 0.033088 0.000027
vn 0.999454 0.023383 0.023330
vn 0.999792 0.000285 0.020375
vn 0.999769 -0.015464 0.014941
vn 0.999446 -0.033048 -0.004025
vn -1.000000 0.000096 -0.000235
vn -1.000000 0.000096 -0.000235
vn 1.000000 0.000096 -0.000232
vn 1.000000 0.000096 -0.000232
vn -0.000000 1.000000 0.000000
vn 0.000514 1.000000 0.000236
vn 0.000299 1.000000 0.000138
vn -0.000000 1.000000 0.000000
vn 0.000000 0.999973 0.007357
vn -0.000000 0.703392 0.710802
vn -0.075490 0.704374 0.705803
vn -0.094525 0.995522 0.001425
vn 0.000000 0.710750 -0.703445
vn -0.113460 0.703251 -0.701830
vn 0.000000 0.000000 -1.000000
vn -0.121270 0.000000 -0.992620
vn 0.000000 -0.710750 -0.703445
vn -0.113460 -0.703250 -0.701830
vn -0.000000 -0.989284 -0.146005
vn -0.097572 -0.984300 -0.147080
vn -0.000000 -0.938120 0.346312
vn -0.100510 -0.937343 0.333596
vn -0.000000 -0.662250 0.749283
vn -0.109480 -0.657463 0.745491
vn 0.000000 -0.487528 0.873107
vn -0.110244 -0.471364 0.875021
vn 0.000000 1.000000 0.000000
vn 0.000000 1.000000 0.000000
vn 0.000000 1.000000 0.000000
vn 0.000000 1.000000 0.000000
vn 0.000000 0.382684 0.923880
vn -0.062458 0.381936 0.922076
vn -0.026530 0.711456 0.702230
vn -0.033602 0.999393 -0.009239
vn -0.040899 0.701924 -0.711077
vn -0.044082 0.000000 -0.999028
vn -0.040998 -0.701894 -0.711100
vn -0.032622 -0.988041 -0.150700
vn -0.031969 -0.942789 0.331854
vn -0.032939 -0.658819 0.751580
vn -0.037535 -0.467456 0.883219
vn -0.000514 1.000000 0.000236
vn -0.000299 1.000000 0.000138
vn -0.022130 0.382349 0.923753
vn -0.518760 -0.616589 -0.592205
vn -0.548363 0.000000 -0.836241
vn -0.519345 0.616630 -0.591649
vn -0.443611 0.895793 0.027642
vn -0.365995 0.641866 0.673837
vn -0.311816 0.361141 0.878833
vn -0.486940 -0.827048 0.280858
vn -0.463805 -0.877514 -0.121874
vn -0.538755 -0.560705 0.628771
vn -0.546668 -0.389548 0.741219
vn 0.004463 0.999988 0.002053
vn 0.004463 0.999988 0.002053
vn 0.548329 0.000001 -0.836263
vn 0.518735 -0.616595 -0.592220
vn 0.519319 0.616638 -0.591664
vn 0.443609 0.895794 0.027633
vn 0.366020 0.641864 0.673824
vn 0.311852 0.361136 0.878823
vn 0.463800 -0.877517 -0.121881
vn 0.486951 -0.827044 0.280851
vn -0.004463 0.999988 0.002053
vn -0.004463 0.999988 0.002053
vn 0.538780 -0.560696 0.628757
vn 0.546698 -0.389539 0.741202
s 1
g pCylinder3
usemtl lambert2SG
f 1/1/1 2/2/2 44/3/3 45/4/4
f 2/2/2 3/5/5 43/6/6 44/3/3
f 3/5/5 4/7/7 42/8/8 43/6/6
f 4/7/7 5/9/9 41/10/10 42/8/8
f 5/9/9 6/11/11 50/12/12 41/10/10
f 17/92/13 18/14/14 48/15/15 49/103/16
f 7/17/17 8/18/18 46/19/19 47/20/20
f 8/18/18 1/1/1 45/4/4 46/19/19
s 4
f 52/21/21 51/23/22 53/24/23
f 54/25/24 52/21/21 53/24/23
f 55/26/25 54/25/24 53/24/23
f 56/27/26 55/26/25 53/24/23
f 57/29/27 56/27/26 53/24/23
f 58/30/28 57/29/27 53/24/23
f 59/32/29 58/30/28 53/24/23
f 51/23/22 59/32/29 53/24/23
s 5
f 62/37/30 63/74/31 64/76/32
f 63/74/31 65/78/33 64/76/32
f 65/78/33 66/80/34 64/76/32
f 66/80/34 67/82/35 64/76/32
f 67/82/35 68/84/36 64/76/32
f 68/84/36 69/85/37 64/76/32
f 69/85/37 70/86/38 64/76/32
f 70/86/38 62/37/30 64/76/32
s 4
f 57/29/27 58/30/28 60/90/39 61/91/40
s 1
f 7/17/17 47/20/20 48/15/15 18/14/14
s 5
f 69/85/37 68/84/36 71/93/41 72/95/42
s 6
f 50/101/43 6/97/44 17/13/45 49/16/46
s 1
f 22/43/47 21/44/48 31/45/49 32/46/50
f 23/47/51 22/43/47 32/46/50 33/48/52
f 24/49/53 23/47/51 33/48/52 34/50/54
f 25/51/55 24/49/53 34/50/54 35/52/56
f 26/53/57 25/51/55 35/52/56 36/54/58
f 27/55/59 26/53/57 36/54/58 37/56/60
f 28/57/61 27/55/59 37/56/60 38/58/62
f 29/104/63 28/57/61 38/58/62 39/106/64
s 6
f 40/105/65 30/102/66 29/59/67 39/60/68
s 1
f 21/44/48 30/62/69 40/61/70 31/45/49
f 32/46/50 31/45/49 13/63/71 12/64/72
f 33/48/52 32/46/50 12/64/72 11/65/73
f 34/50/54 33/48/52 11/65/73 10/66/74
f 35/52/56 34/50/54 10/66/74 9/67/75
f 36/54/58 35/52/56 9/67/75 16/68/76
f 37/56/60 36/54/58 16/68/76 15/69/77
f 38/58/62 37/56/60 15/69/77 19/70/78
f 39/106/64 38/58/62 19/70/78 20/71/79
s 6
f 14/72/80 40/105/65 39/60/68 20/79/81
s 1
f 31/45/49 40/61/70 14/83/82 13/63/71
f 42/8/8 41/10/10 21/44/48 22/43/47
f 43/6/6 42/8/8 22/43/47 23/47/51
f 44/3/3 43/6/6 23/47/51 24/49/53
f 45/4/4 44/3/3 24/49/53 25/51/55
f 46/19/19 45/4/4 25/51/55 26/53/57
f 47/20/20 46/19/19 26/53/57 27/55/59
f 48/15/15 47/20/20 27/55/59 28/57/61
f 49/103/16 48/15/15 28/57/61 29/104/63
s 6
f 30/102/66 50/101/43 49/16/46 29/59/67
s 1
f 41/10/10 50/12/12 30/62/69 21/44/48
f 2/2/2 1/1/1 51/22/83 52/100/84
f 3/5/5 2/2/2 52/100/84 54/99/85
f 4/7/7 3/5/5 54/99/85 55/98/86
f 5/9/9 4/7/7 55/98/86 56/96/87
f 6/11/11 5/9/9 56/96/87 57/87/88
f 8/18/18 7/17/17 58/28/89 59/94/90
f 1/1/1 8/18/18 59/94/90 51/22/83
f 7/17/17 18/14/14 60/39/91 58/28/89
f 18/14/14 17/92/13 61/89/92 60/39/91
s 6
f 17/13/45 6/97/44 57/88/93 61/40/94
s 1
f 9/67/75 10/66/74 63/31/95 62/81/96
f 10/66/74 11/65/73 65/33/97 63/31/95
f 11/65/73 12/64/72 66/34/98 65/33/97
f 12/64/72 13/63/71 67/35/99 66/34/98
f 13/63/71 14/83/82 68/77/100 67/35/99
f 15/69/77 16/68/76 70/38/101 69/73/102
f 16/68/76 9/67/75 62/81/96 70/38/101
s 6
f 14/72/80 20/79/81 71/75/103 68/36/104
s 1
f 20/71/79 19/70/78 72/42/105 71/41/106
f 19/70/78 15/69/77 69/73/102 72/42/105
