# This file uses centimeters as units for non-parametric coordinates.

mtllib window.mtl
g default
v -60.720730 -114.814041 2.300793
v 60.720730 -114.814041 2.300793
v -60.720730 114.814026 2.300793
v 60.720730 114.814026 2.300793
v -69.019897 120.269470 -0.000004
v 69.019897 120.269470 -0.000004
v -69.019897 -120.269455 -0.000004
v 69.019897 -120.269455 -0.000004
vt 0.226077 0.022680
vt 0.773923 0.022680
vt 0.773923 0.977320
vt 0.226077 0.977320
vt 0.786938 1.000000
vt 0.213061 1.000000
vt 0.213061 0.000000
vt 0.786938 0.000000
vn 0.000000 0.000000 1.000000
vn 0.000000 0.000000 1.000000
vn 0.000000 0.000000 1.000000
vn 0.000000 0.000000 1.000000
vn 0.000000 0.388598 0.921408
vn 0.000000 0.388598 0.921408
vn 0.000000 0.388598 0.921408
vn 0.000000 0.388598 0.921408
vn 0.000000 -0.388599 0.921407
vn 0.000000 -0.388599 0.921407
vn 0.000000 -0.388599 0.921407
vn 0.000000 -0.388599 0.921407
vn 0.267156 0.000000 0.963653
vn 0.267156 0.000000 0.963653
vn 0.267156 0.000000 0.963653
vn 0.267156 0.000000 0.963653
vn -0.267156 0.000000 0.963653
vn -0.267156 0.000000 0.963653
vn -0.267156 0.000000 0.963653
vn -0.267156 0.000000 0.963653
s off
g pCube2
usemtl blinn1SG
f 1/1/1 2/2/2 4/3/3 3/4/4
f 3/4/5 4/3/6 6/5/7 5/6/8
f 7/7/9 8/8/10 2/2/11 1/1/12
f 2/2/13 8/8/14 6/5/15 4/3/16
f 7/7/17 1/1/18 3/4/19 5/6/20
