# This file uses centimeters as units for non-parametric coordinates.

mtllib road and path.mtl
g default
v -350.000000 -0.000000 927.402466
v 350.000000 -0.000000 927.402466
v -350.000000 -0.000000 127.402466
v 350.000000 -0.000000 127.402466
v -350.000000 0.000000 -72.597534
v 350.000000 0.000000 -72.597534
v -350.000000 28.275724 -72.597534
v 350.000000 28.275724 -72.597534
v -350.000000 28.275724 127.402466
v 350.000000 28.275724 127.402466
vt 0.163666 0.015554
vt 0.835645 0.015554
vt 0.160623 0.771587
vt 0.838687 0.771586
vt 0.160348 0.988697
vt 0.838966 0.988696
vt 0.830957 0.962862
vt 0.168349 0.962861
vt 0.168383 0.797270
vt 0.830930 0.797271
vn 0.000000 1.000000 0.000000
vn 0.000000 1.000000 0.000000
vn 0.000000 1.000000 0.000000
vn 0.000000 1.000000 0.000000
vn 0.000000 1.000000 0.000000
vn 0.000000 1.000000 0.000000
vn 0.000000 1.000000 0.000000
vn 0.000000 1.000000 0.000000
vn -1.000000 0.000000 0.000000
vn -1.000000 0.000000 0.000000
vn -1.000000 0.000000 0.000000
vn -1.000000 0.000000 0.000000
vn 0.000000 0.000000 1.000000
vn 0.000000 0.000000 1.000000
vn 0.000000 0.000000 1.000000
vn 0.000000 0.000000 1.000000
vn 1.000000 0.000000 0.000000
vn 1.000000 0.000000 0.000000
vn 1.000000 0.000000 0.000000
vn 1.000000 0.000000 0.000000
s off
g pPlane1
usemtl initialShadingGroup
f 3/3/1 1/1/2 2/2/3 4/4/4
f 8/7/5 7/8/6 9/9/7 10/10/8
f 5/5/9 3/3/10 9/9/11 7/8/12
f 3/3/13 4/4/14 10/10/15 9/9/16
f 4/4/17 6/6/18 8/7/19 10/10/20
